<svg id="Layer_1" data-name="Layer 1" xmlns="http://www.w3.org/2000/svg" xmlns:xlink="http://www.w3.org/1999/xlink" viewBox="0 0 507 380"><defs><style>.cls-1{fill:#fefefe;}.cls-2{fill:url(#Orange_Purple_Red);}</style><linearGradient id="Orange_Purple_Red" x1="141.36" y1="414.45" x2="510.67" y2="414.45" gradientUnits="userSpaceOnUse"><stop offset="0" stop-color="#fdba56"/><stop offset="0.02" stop-color="#fbb055"/><stop offset="0.06" stop-color="#f79d54"/><stop offset="0.1" stop-color="#f59253"/><stop offset="0.15" stop-color="#f48e53"/><stop offset="0.3" stop-color="#ed5e4e"/><stop offset="0.47" stop-color="#683a96"/><stop offset="0.64" stop-color="#ed872b"/><stop offset="0.79" stop-color="#7b76b6"/><stop offset="0.9" stop-color="#f15f4f"/><stop offset="1" stop-color="#fdba56"/></linearGradient></defs><path class="cls-1" d="M554.4,212c2.16-.08,2.59.41,2.57,2.56-.12,15.16-.07,30.31-.07,45.47a2.2,2.2,0,0,0-2.54.52,49.18,49.18,0,0,0,1.89-7.77,4.12,4.12,0,0,0-.1-2.25c.09-.31.18-.62.28-.94l-.72.33c-.56-.46-1.49-.49-2.79-.12a29.31,29.31,0,0,0-4.54,2c-5.5,2.62-11.1,5-16.63,7.65-1.09-2.39-.35-4.17,0-5.91q3.27-17.64,6.4-35.31c.36-2.05,1.42-4.2-.21-6.21C543.41,212.1,548.91,212.23,554.4,212Z" transform="translate(-50 -212)"/><path class="cls-1" d="M556.9,260.07q0,163.9.1,327.8c0,3.42-.67,4.1-4.09,4.09q-139-.18-277.9-.09c8-1.13,16.18-.76,24.19-2.18,32.47-5.77,63-16.62,90.91-34.43a227.77,227.77,0,0,0,70.05-70c14-21.88,24-45.58,31.3-70.46a235.8,235.8,0,0,0,9.59-54.93c.28-6.07,2-10.57,6.66-14.2,8.88-6.94,15.81-15.66,22.5-24.6A56,56,0,0,0,538,306.64c5.45-14.84,10.16-29.94,15.9-44.67,0,0,0,0,0-.06C555,261.57,555.84,260.54,556.9,260.07Z" transform="translate(-50 -212)"/><path class="cls-1" d="M556.15,250.57a4.12,4.12,0,0,1,.1,2.25,49.18,49.18,0,0,1-1.89,7.77,8.26,8.26,0,0,1-1.74,1.37C553.7,258.45,554.8,254.93,556.15,250.57Z" transform="translate(-50 -212)"/><path class="cls-1" d="M554.36,260.59a2.2,2.2,0,0,1,2.54-.52c-1.06.47-1.88,1.5-3,1.84C554.06,261.47,554.21,261,554.36,260.59Z" transform="translate(-50 -212)"/><path class="cls-1" d="M552.92,249.84c1.3-.37,2.23-.34,2.79.12l-26.92,12.39c3.11-17.12,6.11-33.68,9.12-50.25,1.63,2,.57,4.16.21,6.21Q535,236,531.72,253.62c-.32,1.74-1.06,3.52,0,5.91,5.53-2.67,11.13-5,16.63-7.65A29.31,29.31,0,0,1,552.92,249.84Z" transform="translate(-50 -212)"/><path class="cls-1" d="M554.36,260.59c-.15.44-.3.88-.46,1.32a2.59,2.59,0,0,1-1.28,0A8.26,8.26,0,0,0,554.36,260.59Z" transform="translate(-50 -212)"/><path class="cls-1" d="M553.9,261.91s0,0,0,.06c-5.74,14.73-10.45,29.83-15.9,44.67a56,56,0,0,1-7.77,14.44c-6.69,8.94-13.62,17.66-22.5,24.6-4.63,3.63-6.38,8.13-6.66,14.2a235.8,235.8,0,0,1-9.59,54.93c-7.26,24.88-17.28,48.58-31.3,70.46a227.77,227.77,0,0,1-70.05,70c-27.92,17.81-58.44,28.66-90.91,34.43-8,1.42-16.16,1-24.19,2.18,6.66-2,13.64-1.78,20.44-2.94,79.89-13.56,139.78-54.8,176.6-127.75A265.72,265.72,0,0,0,500.15,355a9.32,9.32,0,0,1,3.46-7.28,175.87,175.87,0,0,0,17.11-16.77c8.12-9,14.47-18.9,18.24-30.57,4.17-12.92,9.07-25.61,13.66-38.41A2.59,2.59,0,0,0,553.9,261.91Z" transform="translate(-50 -212)"/><path class="cls-1" d="M54.32,212q241.29.18,482.59.1c0,1.48-1.43,1.64-2.29,2.25-14.68,10.35-29.43,20.6-44.07,31a96.15,96.15,0,0,1-24,12c-3.92,1.38-6.82,1-10.39-1.49-20.93-14.73-44.43-21.6-69.78-18.19-44.78,6-80.41,40.92-88.64,85.48-.7,3.81-1.92,4.23-5.44,3.39q-62.1-14.83-104.23-62.71c-7.69-8.76-15.33-17.56-22.83-26.47-1.87-2.22-2.66-2.13-4.17.29-5.52,8.89-11.46,17.54-16.85,26.51-8.63,14.33-14.2,29.85-14.2,46.65,0,19.8-.47,39.58-.79,59.37-.36,22.58,6.62,43.18,19.92,61.51a21.78,21.78,0,0,1,3.93,8.46c5.06,23.95,15.9,44.64,34.51,60.92a1.48,1.48,0,0,1,.64,1.67,151.1,151.1,0,0,1-44.69,2.79c-25.55-2-51.09-4.29-76.63-6.43-5-.42-9.94-.72-16.25-1.17h-.62q0-140.77-.07-281.53C50,212.81,50.67,212,54.32,212Z" transform="translate(-50 -212)"/><path class="cls-2" d="M510.66,299.52c.16,2.68-1.57,4.16-2.68,5.72-8.28,11.65-18.82,21.1-29.85,30-2.57,2.07-3.46,4.23-3.55,7.55-1.71,64.14-22.54,120.54-69.06,165.9-29.93,29.18-66.53,45.87-107.38,53.37q-80.79,14.84-151.76-26.85c-1-.59-2-1.2-3-1.83-.39-.25-.74-.59-2-1.65,41.38,1.42,79.69-4.75,111.32-33.12-16.49-.41-31.61-4.34-44.74-14.48s-21.33-23.22-26.86-39.48c11.44,5.58,22.2,3.12,33.21.68-16.8-5.1-31.72-13-42.66-27.16S155.9,388,155,369.79c10.43,6,21,9.65,33.88,8.59-7.29-6.27-13.47-12-18.48-18.9-18-24.79-18.89-50.91-6.18-78.17,1.9-4.07,3.17-1.65,4.69.06a225.29,225.29,0,0,0,57.83,47.06c28.49,16.05,58.85,26,91.72,27.71,3.57.18,4.91-.29,4.4-4.42-4.27-34.18,11.81-63.56,42.6-80.6,28-15.49,62.8-7.64,84,12.4,3.21,3,5.93,4,10.06,2.58,6.91-2.36,14-4.14,20.93-6.47a92.2,92.2,0,0,0,20.68-10.15C495.73,287.77,484.48,300.19,469,311,484.53,310,497.49,305.25,510.66,299.52Z" transform="translate(-50 -212)"/><path class="cls-1" d="M237,591.87c-60.94,0-121.89-.06-182.84.13-4,0-4.15-1.37-4.15-4.54q0-44.78,0-89.56h.62c23.46,17.24,45.61,33.69,68,49.89,30.29,22,64.22,35.11,101,41.18C225.46,589.93,231.49,589.49,237,591.87Z" transform="translate(-50 -212)"/></svg>